<svg width="91" height="28" viewBox="0 0 91 28" fill="none" xmlns="http://www.w3.org/2000/svg">
<g clip-path="url(#clip0_1_1741)">
<path fill-rule="evenodd" clip-rule="evenodd" d="M56.1207 21.8627C50.8917 25.6968 43.3137 27.7483 36.7797 27.7483C27.6267 27.7483 19.3917 24.38 13.1547 18.7721C12.6687 18.3332 13.1007 17.733 13.6947 18.0734C20.4177 21.9702 28.7427 24.3083 37.3287 24.3083C43.1247 24.3083 49.4967 23.1169 55.3557 20.6354C56.2467 20.2682 56.9847 21.2177 56.1207 21.8627Z" fill="white"/>
<path fill-rule="evenodd" clip-rule="evenodd" d="M58.2902 19.3818C57.6242 18.5308 53.8713 18.9787 52.1883 19.1758C51.6753 19.2385 51.5942 18.7906 52.0622 18.477C55.0502 16.3808 59.9553 16.99 60.5313 17.6887C61.1073 18.3964 60.3782 23.2876 57.5702 25.6257C57.1382 25.984 56.7242 25.7959 56.9222 25.3211C57.5522 23.7534 58.9652 20.2418 58.2902 19.3818Z" fill="white"/>
<path fill-rule="evenodd" clip-rule="evenodd" d="M52.3046 3.69501V1.6615C52.3046 1.35692 52.5386 1.15088 52.8176 1.15088H61.9706C62.2676 1.15088 62.5016 1.36588 62.5016 1.6615V3.40834C62.5016 3.70396 62.2496 4.08021 61.8086 4.68937L57.0746 11.4259C58.8386 11.3811 60.7016 11.6409 62.2946 12.5367C62.6546 12.7428 62.7536 13.0384 62.7806 13.3251V15.4929C62.7806 15.7886 62.4476 16.1379 62.1056 15.9588C59.2886 14.4896 55.5446 14.3284 52.4306 15.9767C52.1156 16.1469 51.7826 15.8065 51.7826 15.5109V13.4505C51.7826 13.119 51.7826 12.5547 52.1156 12.053L57.6146 4.20562H52.8356C52.5386 4.20562 52.3046 3.99959 52.3046 3.69501Z" fill="white"/>
<path fill-rule="evenodd" clip-rule="evenodd" d="M18.9062 16.3997H16.1252C15.8552 16.3818 15.6482 16.1847 15.6302 15.9249V1.6993C15.6302 1.41264 15.8732 1.18869 16.1702 1.18869H18.7712C19.0412 1.19765 19.2572 1.40368 19.2752 1.66347V3.52678H19.3292C20.0042 1.72618 21.2822 0.893066 22.9922 0.893066C24.7382 0.893066 25.8272 1.73514 26.6102 3.52678C27.2852 1.72618 28.8152 0.893066 30.4532 0.893066C31.6232 0.893066 32.9012 1.37681 33.6752 2.45179C34.5572 3.65219 34.3772 5.39008 34.3772 6.91297V15.8891C34.3772 16.1757 34.1342 16.3997 33.8372 16.3997H31.0562C30.7772 16.3818 30.5522 16.1578 30.5522 15.8891V8.34629C30.5522 7.74609 30.6062 6.25007 30.4712 5.67674C30.2642 4.71822 29.6432 4.44947 28.8332 4.44947C28.1582 4.44947 27.4562 4.89738 27.1683 5.61404C26.8802 6.33069 26.9072 7.53109 26.9072 8.33733V15.8801C26.9072 16.1668 26.6642 16.3907 26.3672 16.3907H23.5952C23.3162 16.3728 23.0912 16.1489 23.0912 15.8801V8.33733C23.0912 6.75173 23.3522 4.41364 21.3722 4.41364C19.3742 4.41364 19.4462 6.68902 19.4462 8.33733V15.8801C19.4462 16.1668 19.2032 16.3997 18.9062 16.3997Z" fill="white"/>
<path fill-rule="evenodd" clip-rule="evenodd" d="M70.3943 0.883301C74.5253 0.883301 76.7663 4.41283 76.7663 8.90984C76.7663 13.2456 74.2913 16.6945 70.3943 16.6945C66.3353 16.6945 64.1303 13.165 64.1303 8.75755C64.1213 4.33221 66.3623 0.883301 70.3943 0.883301ZM70.4123 3.79471C68.3603 3.79471 68.2343 6.57175 68.2343 8.30964C68.2343 10.0475 68.2073 13.7652 70.3943 13.7652C72.5543 13.7652 72.6533 10.7731 72.6533 8.94568C72.6533 7.74528 72.5993 6.31197 72.2393 5.17428C71.9243 4.17992 71.3033 3.79471 70.4123 3.79471Z" fill="white"/>
<path fill-rule="evenodd" clip-rule="evenodd" d="M82.1211 16.3989H79.3491C79.0701 16.381 78.8451 16.157 78.8451 15.8883V1.65371C78.8721 1.39392 79.0971 1.18788 79.3851 1.18788H81.9681C82.2111 1.19684 82.4091 1.36704 82.4631 1.58204V3.75888H82.5171C83.3001 1.81495 84.3891 0.883301 86.3151 0.883301C87.5661 0.883301 88.7811 1.33121 89.5641 2.55848C90.2931 3.69617 90.2931 5.61323 90.2931 6.98383V15.942C90.2661 16.1929 90.0321 16.3899 89.7531 16.3899H86.9631C86.7111 16.372 86.4951 16.1839 86.4681 15.942V8.22006C86.4681 6.66134 86.6481 4.38596 84.7221 4.38596C84.0471 4.38596 83.4171 4.83387 83.1111 5.52365C82.7151 6.39259 82.6701 7.26154 82.6701 8.22006V15.8793C82.6611 16.166 82.4181 16.3989 82.1211 16.3989Z" fill="white"/>
<path fill-rule="evenodd" clip-rule="evenodd" d="M45.0062 9.59923C45.0062 10.6832 45.0332 11.579 44.4842 12.5375C44.0432 13.3169 43.3322 13.8006 42.5582 13.8006C41.4872 13.8006 40.8662 12.9854 40.8662 11.794C40.8662 9.42903 42.9902 8.99903 45.0152 8.99903L45.0062 9.59923ZM47.8142 16.3537C47.6342 16.515 47.3642 16.5329 47.1572 16.4164C46.2302 15.655 46.0682 15.2966 45.5552 14.571C44.0252 16.1208 42.9452 16.5866 40.9652 16.5866C38.6162 16.5866 36.7982 15.1444 36.7982 12.2688C36.7982 10.0203 38.0222 8.48842 39.7682 7.73593C41.2802 7.07302 43.3952 6.95656 45.0062 6.76844V6.41011C45.0062 5.74721 45.0602 4.96784 44.6642 4.40348C44.3312 3.89286 43.6742 3.67787 43.0982 3.67787C42.0362 3.67787 41.0912 4.22431 40.8572 5.34409C40.8122 5.59492 40.6232 5.83679 40.3712 5.85471L37.6712 5.56804C37.4462 5.5143 37.1852 5.33513 37.2572 4.98576C37.8872 1.73394 40.8482 0.748535 43.4942 0.748535C44.8532 0.748535 46.6172 1.10686 47.6882 2.1281C49.0472 3.3912 48.9122 5.06639 48.9122 6.89386V11.2117C48.9122 12.5106 49.4522 13.084 49.9652 13.7827C50.1452 14.0335 50.1812 14.3292 49.9562 14.5173C49.3892 15.001 48.3812 15.8789 47.8142 16.3537Z" fill="white"/>
<path fill-rule="evenodd" clip-rule="evenodd" d="M8.49255 9.59923C8.49255 10.6832 8.51955 11.579 7.97055 12.5375C7.52955 13.3169 6.82755 13.8006 6.04455 13.8006C4.97355 13.8006 4.35255 12.9854 4.35255 11.794C4.35255 9.42903 6.47655 8.99903 8.49255 8.99903V9.59923ZM11.3005 16.3537C11.1205 16.515 10.8505 16.5329 10.6435 16.4164C9.71655 15.655 9.55455 15.2966 9.04155 14.571C7.51155 16.1208 6.43155 16.5866 4.45155 16.5866C2.11155 16.5866 0.284546 15.1444 0.284546 12.2688C0.284546 10.0203 1.50855 8.48842 3.25455 7.73593C4.76655 7.07302 6.88155 6.95656 8.49255 6.76844V6.41011C8.49255 5.74721 8.54655 4.96784 8.15955 4.40348C7.81755 3.89286 7.16955 3.67787 6.59355 3.67787C5.53155 3.67787 4.58655 4.22431 4.35255 5.34409C4.30755 5.59492 4.11855 5.83679 3.86655 5.85471L1.16655 5.56804C0.941546 5.5143 0.689546 5.33513 0.752546 4.98576C1.37355 1.73394 4.33455 0.748535 6.98055 0.748535C8.33955 0.748535 10.1035 1.10686 11.1745 2.1281C12.5335 3.3912 12.3985 5.06639 12.3985 6.89386V11.2117C12.3985 12.5106 12.9385 13.084 13.4515 13.7827C13.6315 14.0335 13.6675 14.3292 13.4425 14.5173C12.8755 15.001 11.8675 15.8789 11.3005 16.3537Z" fill="white"/>
</g>
<defs>
<clipPath id="clip0_1_1741">
<rect width="90" height="27" fill="white" transform="translate(0.284546 0.748535)"/>
</clipPath>
</defs>
</svg>
