<svg width="27" height="26" viewBox="0 0 27 26" fill="none" xmlns="http://www.w3.org/2000/svg">
<g clip-path="url(#clip0_10459_2474)">
<path d="M0.0258621 14.5205C0.160159 13.2413 0.998987 11.7538 1.97492 10.926C3.06547 10 4.32547 9.78415 5.59391 9.23039C8.45211 7.98198 11.7786 5.61344 13.9365 3.37247C14.1066 3.19583 14.9659 2.27337 15.013 2.13598C15.1009 1.87733 15.0151 1.54086 15.1234 1.19669C15.5931 -0.302659 17.72 -0.419019 18.3711 1.00113C20.4334 6.74128 22.6651 12.4324 24.5804 18.2188C24.6402 19.7168 22.9084 20.5937 21.7327 19.6382C21.5956 19.5268 21.3369 19.1497 21.2581 19.1139C21.1372 19.0585 20.7097 19.0179 20.5395 18.9906C19.456 18.8139 18.2713 18.7242 17.1786 18.7172C16.9016 18.7151 15.0917 18.7698 15.0017 18.8349C14.8815 19.4441 14.6783 20.0196 14.2796 20.5039C14.1727 20.6336 13.5688 21.153 13.5673 21.2091C14.0525 22.543 15.7822 24.3697 13.9723 25.4443C12.8038 25.8417 11.9649 26.4978 10.9595 25.3833L7.24555 20.5271C7.14782 20.4787 6.24289 20.7002 6.00946 20.7149C3.12946 20.9049 0.350706 18.7235 0.0272684 15.8334C-0.00718476 15.5236 -0.0057785 14.8339 0.0272684 14.5219L0.0258621 14.5205Z" fill="#131319"/>
<path d="M27.001 12.1071V12.3692C26.8414 12.5536 26.7232 12.6447 26.4631 12.6202C26.2486 12.5999 24.7313 12.1877 24.5632 12.0952C24.1948 11.8926 24.3425 11.2568 24.8009 11.2779C25.0104 11.2877 26.4982 11.6928 26.7148 11.7889C26.8878 11.866 26.9096 11.9571 27.0017 12.1071H27.001Z" fill="#131319"/>
<path d="M25.3538 7.55152C25.787 7.50385 26.0513 8.10247 25.595 8.37374C25.1007 8.66814 24.2352 8.7831 23.7008 9.06278C23.229 9.05928 22.9998 8.50132 23.4498 8.23145C23.6087 8.13612 25.1844 7.56974 25.3531 7.55081L25.3538 7.55152Z" fill="#131319"/>
<path d="M22.8206 5.84578C22.4472 6.16332 21.9494 5.80092 22.1238 5.33548C22.3699 5.06421 23.1377 3.69594 23.4007 3.61743C23.7944 3.49967 24.0939 3.78776 23.9716 4.18591C23.9421 4.28264 22.9007 5.77709 22.8206 5.84578Z" fill="#131319"/>
<path d="M19.5195 14.3629C19.4443 14.4666 19.355 14.5577 19.2474 14.6271C18.5436 15.0841 17.3722 15.4893 16.5559 15.7543C13.9515 16.5996 11.1966 16.8211 8.60914 16.4209L8.50859 16.3045C7.74289 14.2276 6.9575 12.1548 6.19953 10.0737L6.19531 9.93839C7.08406 9.43651 8.00094 8.98719 8.87281 8.45586C11.2824 6.98665 13.4945 5.17257 15.3837 3.08301C16.8308 6.81352 18.152 10.6008 19.5195 14.3629Z" fill="#EFEFFB"/>
<path d="M16.5548 0.891235C16.8909 0.82955 17.1961 0.900347 17.4408 1.13867C19.6289 6.80523 21.6834 12.551 23.7295 18.2771C23.7042 19.2192 22.4393 19.5024 22.0385 18.6493L16.0409 2.27002C15.7765 1.77795 15.9347 1.00549 16.5541 0.891235H16.5548Z" fill="#F6524B"/>
<path d="M7.4009 15.9895C7.74051 16.9239 8.15113 17.8485 8.45558 18.7955C8.4809 18.8747 8.58426 19.0562 8.50832 19.1109C7.99785 19.2581 7.50004 19.5063 6.99097 19.6479C2.52402 20.8886 -0.915666 15.9237 1.92215 12.2646L2.13519 12.4076C2.54652 13.0462 3.06613 13.607 3.65465 14.0864C4.79301 15.0138 6.06847 15.4968 7.4016 15.9902L7.4009 15.9895Z" fill="#DE4A44"/>
<path d="M19.5188 14.3623C19.9758 15.6184 20.5095 16.8577 20.8884 18.1398C17.0592 17.6197 13.1442 17.8762 9.40711 18.8211C9.07664 17.9947 8.81578 17.1381 8.50781 16.304L10.4316 16.5136C13.6062 16.6152 16.7491 15.8792 19.5195 14.363L19.5188 14.3623Z" fill="#D7D7E2"/>
<path d="M1.92258 12.2638C2.83453 11.0876 3.96937 10.7118 5.34609 10.2695C6.03516 12.174 6.70945 14.0856 7.40133 15.9887C7.36477 16.0847 7.24031 15.9929 7.17844 15.9746C5.05922 15.3613 3.07219 14.1851 1.92188 12.2631L1.92258 12.2638Z" fill="#F6524B"/>
<path d="M12.0371 20.0816C12.6629 21.358 13.302 22.6296 13.8983 23.9215C13.9869 24.1388 13.873 24.4563 13.6979 24.5951C13.5763 24.6918 12.5377 25.0794 12.3669 25.1054C11.81 25.1916 11.7439 24.9575 11.4366 24.5881C10.8109 23.8366 10.2104 22.9646 9.61344 22.1796L9.54102 22.0064C9.89398 21.2795 10.4916 20.6655 11.1772 20.2337C11.3938 20.0977 11.893 19.7879 12.0364 20.0809L12.0371 20.0816Z" fill="#DDDDE9"/>
<path d="M9.61429 22.181C9.17695 21.6062 8.4914 20.8548 8.13984 20.2646C8.11242 20.219 8.04703 20.2218 8.13984 20.1609C8.31633 20.0438 9.09258 19.8027 9.34008 19.7298C9.62133 19.6471 11.5507 19.1802 11.6618 19.2503C11.7968 19.5202 11.9058 19.8118 12.038 20.0823C11.9023 19.9835 11.7616 20.0767 11.6337 20.1258C10.8926 20.4111 10.0664 21.2312 9.69726 21.9231C9.65156 22.0093 9.60023 22.0731 9.61429 22.181Z" fill="#C7C7D2"/>
<path d="M14.0916 18.875C13.9777 19.4505 13.6817 20.0232 13.1713 20.3442C13.0953 20.3267 12.5968 19.2549 12.5645 19.0853L14.0923 18.875H14.0916Z" fill="#404049"/>
</g>
<defs>
<clipPath id="clip0_10459_2474">
<rect width="27" height="26" fill="white"/>
</clipPath>
</defs>
</svg>
