<svg width="125" height="28" viewBox="0 0 125 28" fill="none" xmlns="http://www.w3.org/2000/svg">
<path d="M22.7099 27.3442H4.54198C3.32871 27.3442 2.20877 26.8893 1.33771 26.0402C0.466642 25.191 0 24.0993 0 22.9166V5.14576C0 3.96306 0.497751 2.87133 1.33771 2.02221C2.20877 1.20342 3.32871 0.748535 4.54198 0.748535H22.7099C23.9232 0.748535 25.0431 1.20342 25.9142 2.02221C26.7852 2.84101 27.2519 3.93273 27.283 5.11543V22.9166C27.283 24.0993 26.7852 25.2214 25.9142 26.0402C25.0742 26.8893 23.9232 27.3442 22.7099 27.3442ZM4.54198 2.02221C3.67091 2.02221 2.86207 2.3558 2.27099 2.93198C1.6488 3.5385 1.3066 4.29664 1.3066 5.14576V22.9166C1.3066 23.7657 1.6488 24.5542 2.27099 25.1607C2.89318 25.7672 3.70202 26.1008 4.57309 26.1008H22.7099C23.581 26.1008 24.3898 25.7672 25.012 25.191C25.6342 24.5845 25.9764 23.7961 25.9764 22.9469V5.14576C25.9453 4.32697 25.6031 3.5385 24.9809 2.93198C24.3587 2.3558 23.5499 2.02221 22.6788 2.02221H4.54198Z" fill="white"/>
<path fill-rule="evenodd" clip-rule="evenodd" d="M14.2544 4.56982H12.2012V10.0284C12.9478 10.0284 13.6633 10.2407 14.2544 10.635V4.56982Z" fill="white"/>
<path fill-rule="evenodd" clip-rule="evenodd" d="M12.7238 19.8841C12.3193 20.6119 11.4794 21.0668 10.6083 21.0062C10.0172 21.0365 9.42617 20.8242 8.92842 20.4906C8.43067 20.0964 8.08846 19.5809 7.8707 19.0047C7.65293 18.3981 7.52849 17.731 7.49738 17.0941C7.49738 16.427 7.62182 15.7598 7.8707 15.1533C8.05735 14.5771 8.43067 14.0616 8.92842 13.6977C9.39506 13.3034 9.98614 13.1215 10.6083 13.1215C11.1994 13.1215 11.7594 13.3034 12.1949 13.6673C12.6304 14.0616 12.9415 14.5771 13.1282 15.123C13.3148 15.7598 13.4082 16.427 13.4082 17.0941C13.4704 18.0646 13.2215 19.035 12.7238 19.8841ZM16.3636 13.9099C15.9903 12.9699 15.3681 12.1207 14.5592 11.4839C13.7504 10.8774 12.7238 10.5438 11.6972 10.5741C10.9194 10.5741 10.1417 10.7257 9.45728 11.029C8.77287 11.3323 8.2129 11.8175 7.77737 12.424H7.74626V4.53931H4.32422V23.4929C4.32422 23.4929 7.43516 23.8568 7.5596 21.8856V21.552L7.59071 21.7036C7.68404 21.9159 7.80848 22.0979 7.96402 22.2798C8.33734 22.6437 8.74176 22.947 9.23951 23.129C10.0172 23.4322 10.8572 23.5535 11.6972 23.5232C12.7238 23.5535 13.7504 23.2503 14.5592 22.6437C15.3681 22.0069 15.9903 21.1881 16.3636 20.248C16.768 19.2473 16.9858 18.1555 16.9858 17.0941C16.9858 16.0024 16.7991 14.9107 16.3636 13.9099Z" fill="white"/>
<path fill-rule="evenodd" clip-rule="evenodd" d="M22.3389 13.9098C21.2501 11.1804 18.1391 9.78546 15.4015 11.0288C15.277 11.0895 15.1526 11.1501 15.0593 11.2108C15.4637 11.5747 15.837 11.9992 16.1481 12.4541C16.4903 12.3328 16.8636 12.2722 17.2369 12.2722C19.8501 12.2722 20.659 14.9712 20.659 17.0636C20.659 19.1561 19.819 21.8248 17.2369 21.8248C16.8325 21.8248 16.4281 21.7641 16.0548 21.6428C15.6815 22.128 15.277 22.5829 14.7793 22.9468C14.9037 23.0075 15.0282 23.0681 15.1837 23.1288C15.9615 23.432 16.8014 23.5533 17.6414 23.523C18.668 23.5533 19.6946 23.2501 20.5034 22.6436C21.3123 22.0067 21.9345 21.1879 22.3078 20.2175C22.7122 19.2168 22.93 18.125 22.93 17.0636C22.9611 16.0022 22.7433 14.9105 22.3389 13.9098ZM37.8314 19.8233C37.3959 20.5511 36.587 21.006 35.7471 20.9756C35.156 21.006 34.5649 20.7937 34.0983 20.4298C33.6005 20.0355 33.2272 19.52 33.0405 18.9135C32.7917 18.307 32.6672 17.6398 32.6672 16.9726C32.6672 16.3055 32.7917 15.6686 33.0405 15.0621C33.2272 14.4859 33.6005 13.9704 34.0983 13.6065C34.5649 13.2426 35.156 13.0303 35.7471 13.0606C36.307 13.0606 36.867 13.2426 37.2714 13.6065C37.707 14.0007 38.0492 14.4556 38.2669 14.9712C38.4536 15.6383 38.578 16.3358 38.578 17.003C38.6091 18.0037 38.3603 18.9741 37.8314 19.8233ZM41.4712 13.8491C41.0979 12.909 40.4757 12.0902 39.698 11.4534C38.858 10.8469 37.8314 10.5133 36.8048 10.5436C36.0271 10.5436 35.2804 10.6952 34.596 11.0288C33.9116 11.2714 33.3205 11.7566 32.9161 12.3631H32.8539V4.56944H29.463V23.4017C29.463 23.4017 32.5428 23.7656 32.6672 21.7641V21.5215L32.7294 21.6428C32.8228 21.8248 32.9472 22.0067 33.1028 22.1887C33.4761 22.5526 33.9116 22.8558 34.4094 23.0378C35.156 23.341 35.9959 23.4927 36.8048 23.4623C37.8314 23.4927 38.858 23.1591 39.698 22.5526C40.5068 21.9157 41.129 21.0969 41.4712 20.1568C41.8756 19.1561 42.0934 18.0947 42.0934 17.0333C42.1245 15.9416 41.9067 14.8499 41.4712 13.8491ZM46.4176 10.9075V23.4927H43.0267V10.9075H46.4176ZM43.0267 7.32908V4.56944H46.4176V7.32908H43.0267ZM56.3104 18.0947C56.2171 18.4889 56.0615 18.8528 55.8127 19.1864C55.5638 19.4897 55.2527 19.7323 54.8794 19.9142C54.475 20.1568 54.0394 20.2478 53.5728 20.2175C53.1061 20.2175 52.6706 20.1265 52.2662 19.9142C51.924 19.6716 51.6129 19.3684 51.3951 19.0045C51.1774 18.6406 51.0218 18.2767 50.9596 17.8521C50.8663 17.4275 50.804 16.9726 50.8351 16.5178C50.8351 16.0629 50.8974 15.6383 50.9596 15.1834C51.084 14.7892 51.2396 14.4253 51.4573 14.0917C51.6751 13.7581 51.9862 13.5155 52.3284 13.3032C52.7017 13.1213 53.1372 13 53.5728 13C54.0705 13 54.5372 13.091 54.9727 13.3032C55.346 13.5155 55.626 13.7885 55.8438 14.1524C56.0615 14.5163 56.2482 14.9408 56.3415 15.3654C56.4037 15.8506 56.466 16.3358 56.466 16.821C56.4971 17.2759 56.4348 17.7308 56.3104 18.0947ZM56.4971 12.5148H56.4348C56.0926 11.8476 55.5638 11.3321 54.9105 10.9985C54.2572 10.6649 53.5417 10.5133 52.8262 10.5133C52.0484 10.5133 51.2707 10.6649 50.5552 10.9985C49.9019 11.3321 49.3419 11.787 48.9064 12.3935C48.4397 12.9697 48.0664 13.6065 47.8486 14.304C47.6309 15.0318 47.5064 15.8203 47.5375 16.5784C47.5375 17.3669 47.5998 18.1554 47.7864 18.9135C47.9731 19.6413 48.3153 20.3085 48.7819 20.8847C49.2175 21.4609 49.7774 21.9157 50.4307 22.219C51.1774 22.5526 51.9551 22.7042 52.7639 22.7042C53.5106 22.7042 54.2261 22.5829 54.9105 22.2796C55.5638 21.9764 56.0926 21.4609 56.4348 20.824H56.4971V22.4009C56.5904 23.1894 56.3726 23.9476 55.8749 24.5844C55.4394 25.1909 54.7549 25.4335 53.7905 25.4335C53.2306 25.4335 52.6706 25.3122 52.204 25.0696C51.7062 24.7967 51.364 24.3418 51.2707 23.7959H47.8797C47.9109 24.4328 48.1286 25.0393 48.5019 25.5548C48.813 26.0704 49.2797 26.4646 49.8085 26.7679C50.3063 27.1318 50.9285 27.4047 51.5507 27.4957C52.1417 27.6776 52.7639 27.7383 53.3861 27.7383C54.5372 27.7989 55.7193 27.5866 56.7771 27.1318C57.5237 26.8285 58.177 26.3433 58.6747 25.7368C59.1103 25.2212 59.4214 24.6451 59.5458 24.0082C59.7013 23.4623 59.7947 22.8862 59.7947 22.31V10.9075H59.3591C56.6215 10.9682 56.4971 12.5148 56.4971 12.5148ZM124.253 12.6967V12.4541C124.067 10.9985 122.231 10.9985 122.231 10.9985V4.50879H120.147V10.9985H118.405V12.6967H120.147V20.8847C120.147 22.3403 120.583 23.523 122.667 23.523C122.916 23.523 123.538 23.4017 124.285 23.341V21.7035H123.507C123.071 21.7035 122.2 21.7035 122.2 20.733V12.6967H124.253ZM106.646 11.7263C105.463 10.5133 104.063 11.605 103.815 11.8476L99.0548 16.3661V4.50879H97.0327V23.523H99.0548V18.8528L100.828 17.2759L104.748 23.523H107.454L102.352 15.7596L106.646 11.7263ZM92.1796 16.1842L90.0953 15.6383C88.4465 15.2138 87.7621 14.9712 87.7621 14.0007C87.7621 12.4238 89.6597 12.2722 90.2819 12.2722C91.713 12.2722 92.4285 12.5754 92.8018 13.0606C92.8018 13.0606 93.984 14.395 95.3217 13.9704C95.1972 12.9393 94.3884 10.483 90.5308 10.483C88.0109 10.483 85.74 11.696 85.74 14.395C85.74 16.0932 86.9221 16.9727 88.6954 17.3972L91.153 18.0037C92.9262 18.4283 93.6106 18.7922 93.6106 19.7626C93.6106 21.1576 92.2729 21.7338 90.7175 21.7338C87.7621 21.7338 87.451 20.1568 87.3887 19.2168H85.3044C85.4289 20.733 85.8022 23.5533 90.7797 23.5533C93.6106 23.5533 95.7572 21.9764 95.7572 19.4594C95.7572 17.7611 94.8239 16.7907 92.1796 16.1842Z" fill="white"/>
<path fill-rule="evenodd" clip-rule="evenodd" d="M112.556 12.3328C115.138 12.3328 115.947 14.0614 116.04 16.0022H110.658C110.036 16.0326 109.445 16.3055 109.072 16.7907V16.0022C109.072 14.0917 110.596 12.3328 112.556 12.3328ZM112.743 21.7035C110.285 21.7035 109.041 20.1872 109.041 17.6095H118.28C118.28 13.2729 116.507 10.4526 112.867 10.4526C108.667 10.4526 106.77 13.4549 106.77 17.3062C106.77 20.8543 108.854 23.4927 112.432 23.4927C114.454 23.4927 115.263 23.0075 115.885 22.5829C117.067 21.7944 117.876 20.5814 118.094 19.2168H116.009C115.885 20.2478 114.703 21.7338 112.743 21.7035ZM81.571 18.9135C81.571 20.5511 79.6111 21.7944 77.6512 21.7944C76.0646 21.7944 75.3802 21.006 75.3802 19.6413C75.3802 18.0644 77.029 17.7611 78.0868 17.6398C80.7311 17.2759 81.2288 17.094 81.571 16.8513V18.9135ZM84.402 21.7338C84.0598 21.7944 83.7176 21.5518 83.6553 21.1879C83.6553 21.1273 83.6553 21.0666 83.6553 21.006V13.9098C83.6553 10.7256 80.0155 10.5133 78.9578 10.5133C75.878 10.5133 73.9181 11.6657 73.7937 14.4859C74.6647 14.6376 75.5358 14.2433 76.0024 13.5155C76.0646 13.3942 76.158 13.2729 76.2513 13.1516C76.6246 12.5754 77.309 12.1509 78.5845 12.1509C80.6066 12.1509 81.6021 12.8787 81.6021 14.1827C81.6021 15.3957 80.9799 15.5777 80.4822 15.6383L76.9979 16.0629C73.4203 16.4874 73.1092 18.8832 73.1092 19.8839C73.1092 22.0674 74.7892 23.4927 77.1224 23.4927C78.8956 23.523 80.5755 22.7649 81.6955 21.4305C81.7577 22.4009 82.0688 23.3714 83.9042 23.3714C84.3087 23.341 84.682 23.2501 85.0864 23.1288V21.6125C84.8375 21.6731 84.5886 21.7338 84.402 21.7338ZM66.9185 21.7338C65.5497 21.7338 63.4653 20.824 63.4653 17.5792C63.4653 15.5473 63.8386 12.3328 66.8562 12.3328C70.185 12.3328 70.3716 15.3351 70.3716 16.9726C70.3716 19.6716 69.2517 21.7338 66.9185 21.7338ZM67.2918 10.4829C65.7985 10.4526 64.4297 11.1804 63.652 12.3935H63.5898V4.50879H61.4432V23.1591H62.252C62.9365 23.1591 63.4653 22.6132 63.4964 21.9461V21.5822H63.5586C64.2119 22.8255 65.5808 23.5836 67.0118 23.523C71.336 23.523 72.5493 19.5503 72.5493 16.6087C72.5182 13.1213 70.6205 10.4829 67.2918 10.4829Z" fill="white"/>
</svg>
