<svg width="163" height="28" viewBox="0 0 163 28" fill="none" xmlns="http://www.w3.org/2000/svg">
<g clip-path="url(#clip0_1_1723)">
<path d="M0.304077 0.778944H162.307V27.8325H0.304077V0.778944Z" fill="#F2F4F6"/>
<path d="M27.351 0.778944H162.308V27.8325H27.351V0.778944Z" fill="#E6EAEE"/>
<path d="M35.8197 20.5923V7.74863H40.0542V12.1209H44.0155V7.74863H48.2499V20.5923H44.0155V15.6734H40.0542V20.5923H35.8197Z" fill="#022B50"/>
<path d="M54.943 11.0279H56.0358C56.8553 11.0279 57.4017 11.1645 57.8115 11.3011C58.0847 11.4378 58.3579 11.5744 58.4945 11.8477C58.6311 12.1209 58.7677 12.3942 58.9043 12.8041C59.0409 13.214 59.0409 13.6239 59.0409 14.1705C59.0409 14.8536 58.9043 15.5368 58.7677 16.0833C58.4945 16.6299 58.2213 16.9032 57.8115 17.1764C57.4017 17.4497 56.8553 17.4497 56.0358 17.4497H54.943V11.0279ZM56.4455 20.5923C57.4017 20.5923 58.2213 20.4556 58.9043 20.319C59.5873 20.1824 60.1336 19.9091 60.5434 19.6358C60.9532 19.3626 61.363 18.9527 61.7728 18.5428C62.1826 17.9962 62.4558 17.4497 62.729 16.6299C63.0022 15.9467 63.1387 14.9903 63.1387 14.0338C63.1387 12.6675 62.8656 11.4378 62.3192 10.4813C61.7728 9.52487 61.0898 8.8417 60.1336 8.4318C59.1775 8.0219 58.0847 7.74863 56.7187 7.74863H50.8451V20.5923H56.4455Z" fill="#022B50"/>
<path d="M65.0502 20.5923V7.74863H75.0217V10.8912H69.1481V12.9408H73.7923V15.9467H69.1481V20.4556L65.0502 20.5923Z" fill="#022B50"/>
<path d="M89.0914 12.8024H85.1301C84.9935 12.1192 84.8569 11.7093 84.4471 11.2994C84.0373 10.8895 83.6275 10.7528 82.9445 10.7528C82.2616 10.7528 81.5786 11.0261 81.1688 11.5727C80.759 12.1192 80.4858 13.0756 80.4858 14.3053C80.4858 15.2618 80.6224 15.8083 80.759 16.3549C80.8956 16.7648 81.3054 17.1746 81.5786 17.4479C81.9884 17.7212 82.3982 17.7212 82.9445 17.7212C83.6275 17.7212 84.0373 17.5846 84.4471 17.1747C84.8569 16.7648 84.9935 16.3548 85.1301 15.535H89.228C89.0914 16.3548 88.9548 17.038 88.6816 17.5846C88.4084 18.1311 88.1352 18.6776 87.5888 19.2242C87.0425 19.7707 86.3594 20.1806 85.6765 20.4539C84.9935 20.7272 84.0373 20.8638 83.0811 20.8638C82.125 20.8638 81.1688 20.7272 80.3492 20.4539C79.5296 20.1806 78.8467 19.7707 78.3003 19.2242C77.7539 18.6776 77.3441 18.1311 76.9343 17.4479C76.5245 16.4915 76.2513 15.3984 76.2513 14.3053C76.2513 13.3489 76.3879 12.3925 76.7977 11.5727C77.0709 10.7528 77.6173 9.93303 78.1637 9.3865C78.7101 8.83996 79.3931 8.43006 80.0761 8.02015C80.8956 7.61025 81.8518 7.47362 82.9445 7.47362C83.9007 7.47362 84.7203 7.61024 85.5399 7.88351C86.3595 8.15678 87.0425 8.56667 87.5888 9.11321C88.1352 9.65975 88.545 10.2063 88.8182 10.8895C88.8182 11.436 88.9548 11.9825 89.0914 12.8024Z" fill="#022B50"/>
<path d="M102.479 10.7546C103.025 10.7546 103.435 10.7546 103.708 10.8912C103.981 11.0279 104.118 11.1645 104.255 11.3011C104.391 11.4378 104.528 11.711 104.528 11.9843C104.528 12.2576 104.391 12.5308 104.118 12.8041C103.845 13.0774 103.435 13.0774 102.752 13.0774H101.113V10.8912H102.479V10.7546ZM103.572 20.5923C104.528 20.5923 105.211 20.5923 105.621 20.4556C106.03 20.319 106.44 20.1823 106.85 20.0457C107.26 19.7724 107.533 19.6358 107.806 19.3625C108.079 19.0893 108.352 18.6794 108.489 18.2695C108.626 17.8596 108.762 17.313 108.762 16.7665C108.762 15.9467 108.626 15.4002 108.216 14.8536C107.806 14.3071 107.26 14.0338 106.713 13.7606C107.806 13.0774 108.352 12.121 108.352 11.0279C108.352 9.93481 107.806 8.97834 106.85 8.4318C106.167 8.0219 104.938 7.74863 103.298 7.74863H97.015V20.5923H103.572ZM102.889 15.2635C103.708 15.2635 104.255 15.4002 104.528 15.5368C104.801 15.8101 104.938 16.0833 104.938 16.3566C104.938 16.7665 104.801 17.0398 104.528 17.313C104.255 17.5863 103.708 17.5863 102.889 17.5863H101.113V15.1269L102.889 15.2635Z" fill="#022B50"/>
<path d="M118.049 16.3566H115.317L116.683 11.7111L118.049 16.3566ZM114.224 20.5923L114.771 18.9527H119.005L119.552 20.5923H123.786L119.142 7.74863H114.907L110.263 20.5923H114.224Z" fill="#022B50"/>
<path d="M125.288 20.5923V7.74863H129.25L133.621 14.5803V7.74863H137.582V20.5923H133.621L129.25 13.8972V20.5923H125.288Z" fill="#022B50"/>
<path d="M140.453 20.5923V7.74863H144.55V12.1209L148.375 7.88527H153.293L148.648 12.6675L153.839 20.5923H148.785L145.78 15.5368L144.687 16.6299V20.5923H140.453Z" fill="#022B50"/>
<path d="M0.304077 0.778944H27.3501V27.8325H0.304077V0.778944Z" fill="#E6EAEE"/>
<path d="M5.08533 5.42545H22.5696V23.0513H5.08533V5.42545Z" fill="#022B50"/>
<path d="M12.4603 0.778944H15.1922V27.8325H12.4603V0.778944Z" fill="#022B50"/>
<path d="M0.304077 12.9397H27.3501V15.6724H0.304077V12.9397Z" fill="#022B50"/>
<path d="M9.72986 10.2067H17.789V18.2681H9.72986V10.2067Z" fill="#F2F4F6"/>
</g>
<defs>
<clipPath id="clip0_1_1723">
<rect width="162" height="27" fill="white" transform="translate(0.284546 0.748535)"/>
</clipPath>
</defs>
</svg>
