<svg width="755" height="246" viewBox="0 0 755 246" fill="none" xmlns="http://www.w3.org/2000/svg">
<path d="M750.237 42.3389C753.18 45.2303 754.651 48.882 754.651 53.2961C754.651 57.6602 753.18 61.2869 750.237 64.1784C747.295 67.0698 743.694 68.5155 739.432 68.5156C735.17 68.5156 731.568 67.07 728.625 64.1786C725.684 61.2872 724.213 57.6605 724.213 53.2965C724.213 48.8824 725.684 45.2306 728.625 42.3391C731.568 39.4458 735.17 38 739.432 38C743.694 38 747.295 39.4456 750.237 42.3389H750.237ZM748.373 62.3515C750.834 59.9163 752.064 56.8979 752.064 53.2961C752.064 49.6444 750.834 46.599 748.373 44.1638C745.913 41.7287 742.932 40.5121 739.432 40.5122C735.982 40.5122 733.027 41.7288 730.565 44.164C728.105 46.5992 726.875 49.6446 726.875 53.2964C726.875 56.8982 728.105 59.9166 730.565 62.3517C733.027 64.7868 735.982 66.0054 739.432 66.0053C742.932 66.0053 745.913 64.7867 748.373 62.3515V62.3515ZM742.171 54.971L746.812 59.9934L743.617 59.9934L739.203 55.1982L736.541 55.1982V59.9935L733.953 59.9935V45.7637L740.344 45.7636C742.069 45.7636 743.451 46.1813 744.493 47.0187C745.532 47.8561 746.052 48.9842 746.052 50.4048C746.052 52.84 744.758 54.3627 742.171 54.971V54.971ZM740.344 52.917C741.259 52.917 741.994 52.6879 742.552 52.2317C743.109 51.7755 743.388 51.1903 743.388 50.4819C743.388 49.7715 743.109 49.1998 742.552 48.7686C741.994 48.3374 741.259 48.1218 740.344 48.1218L736.541 48.1218V52.9171L740.344 52.917V52.917Z" fill="white"/>
<path d="M288.224 212.834C287.436 213.484 286.904 214.363 286.627 215.469L286.046 217.917H292.934L292.104 221.486H285.258L281.316 238.498H277L280.942 221.486H277.581L278.411 217.917H281.73L282.311 215.469C282.865 213.09 283.93 211.25 285.507 209.95C287.084 208.65 289.006 208 291.274 208C292.657 208 293.778 208.249 294.635 208.747L293.764 212.191C292.879 211.969 291.966 211.859 291.025 211.859C289.946 211.859 289.013 212.183 288.224 212.834V212.834Z" fill="white"/>
<path d="M311.526 220.51C313.434 222.543 314.14 225.123 313.642 228.25C313.171 231.403 311.767 233.982 309.43 235.988C307.092 237.993 304.388 238.996 301.318 238.996C298.164 238.996 295.633 237.986 293.724 235.968C291.815 233.948 291.096 231.375 291.566 228.25C292.064 225.095 293.489 222.509 295.84 220.489C298.192 218.471 300.903 217.461 303.974 217.461C307.099 217.461 309.617 218.478 311.526 220.51V220.51ZM306.63 233.312C308.179 232.011 309.119 230.324 309.45 228.25C309.783 226.174 309.375 224.473 308.227 223.145C307.079 221.818 305.591 221.153 303.766 221.153C301.884 221.153 300.17 221.818 298.621 223.145C297.072 224.473 296.131 226.174 295.799 228.25C295.467 230.324 295.875 232.011 297.023 233.312C298.171 234.612 299.685 235.262 301.567 235.262C303.392 235.262 305.08 234.612 306.63 233.312V233.312Z" fill="white"/>
<path d="M334.224 217.833L333.062 221.984C332.841 221.956 332.454 221.941 331.9 221.941C329.384 221.941 327.287 222.765 325.614 224.411C323.94 226.056 322.771 228.332 322.108 231.237L320.407 238.498H316.091L320.821 217.917H325.178L324.349 221.569C326.893 218.968 329.73 217.668 332.855 217.668C333.464 217.668 333.92 217.724 334.225 217.833H334.224Z" fill="white"/>
<path d="M368.728 219.577C369.987 221.071 370.34 223.007 369.786 225.386L366.757 238.498H362.484L365.304 226.257C365.637 224.792 365.464 223.601 364.787 222.689C364.108 221.776 363.105 221.32 361.778 221.32C360.09 221.32 358.638 221.88 357.421 223C356.204 224.12 355.319 225.759 354.766 227.917L352.316 238.498H348.002L350.823 226.257C351.183 224.792 351.023 223.601 350.346 222.689C349.668 221.776 348.665 221.32 347.338 221.32C345.705 221.32 344.301 221.845 343.126 222.896C341.95 223.947 341.072 225.496 340.491 227.544L337.96 238.498H333.644L338.375 217.917H342.691L342.109 220.365C343.824 218.345 346.079 217.336 348.873 217.336C350.505 217.336 351.902 217.695 353.064 218.415C354.225 219.134 355 220.13 355.387 221.402C357.325 218.691 359.966 217.336 363.313 217.336C365.664 217.336 367.469 218.082 368.728 219.577L368.728 219.577Z" fill="white"/>
<path d="M377.134 229.536C377.134 231.361 377.632 232.786 378.628 233.81C379.623 234.833 381.047 235.345 382.901 235.345C385.585 235.345 387.687 234.1 389.209 231.61L393.026 232.607C392.03 234.681 390.606 236.278 388.752 237.399C386.899 238.52 384.851 239.079 382.611 239.079C379.761 239.079 377.473 238.228 375.743 236.527C374.015 234.826 373.15 232.551 373.15 229.702C373.15 226.189 374.38 223.249 376.843 220.884C379.305 218.519 382.141 217.336 385.35 217.336C388.393 217.336 390.751 218.435 392.424 220.634C394.098 222.835 394.644 225.704 394.064 229.245H377.134V229.536V229.536ZM380.536 222.439C379.263 223.408 378.337 224.652 377.756 226.174H390.37C390.287 224.514 389.775 223.236 388.835 222.337C387.895 221.436 386.622 220.987 385.017 220.987C383.302 220.987 381.808 221.472 380.536 222.439V222.439Z" fill="white"/>
<path d="M414.812 217.833L413.65 221.984C413.428 221.956 413.041 221.941 412.488 221.941C409.972 221.941 407.875 222.765 406.202 224.411C404.528 226.056 403.359 228.332 402.696 231.237L400.995 238.498H396.679L401.409 217.917H405.766L404.937 221.569C407.481 218.968 410.317 217.668 413.443 217.668C414.051 217.668 414.508 217.724 414.812 217.833H414.812Z" fill="white"/>
<path d="M413.859 238.498L420.788 208.622H425.104L418.216 238.498H413.859Z" fill="white"/>
<path d="M430.872 245.552H425.933L430.996 238L426.888 217.917H431.411L434.398 232.938L444.482 217.917H449.254L430.872 245.552V245.552Z" fill="white"/>
<path d="M472.286 238.498H467.97L462.492 210.697H467.098L471.165 232.482L485.356 210.697H490.626L472.286 238.498V238.498Z" fill="white"/>
<path d="M506.106 238.498H501.79L502.288 236.382C500.324 238.18 497.876 239.079 494.943 239.079C492.177 239.079 489.95 238.056 488.263 236.009C486.575 233.962 485.98 231.348 486.478 228.166C486.976 224.957 488.345 222.35 490.586 220.344C492.827 218.338 495.413 217.336 498.346 217.336C501.998 217.336 504.473 218.691 505.773 221.402L506.562 217.917H510.877L506.106 238.498V238.498ZM501.292 233.291C502.868 231.977 503.823 230.268 504.156 228.166C504.487 226.064 504.079 224.369 502.931 223.083C501.783 221.796 500.309 221.153 498.511 221.153C496.547 221.153 494.84 221.796 493.387 223.083C491.934 224.369 491.029 226.064 490.67 228.166C490.31 230.297 490.662 232.011 491.728 233.312C492.792 234.612 494.293 235.262 496.23 235.262C498.028 235.262 499.715 234.605 501.292 233.291V233.291Z" fill="white"/>
<path d="M534.199 238.498H528.929L521.252 229.951H519.053L517.103 238.498H512.787L519.676 208.622H523.991L520.049 225.677H521.211L531.584 217.917H537.476L524.489 227.834L534.199 238.498V238.498Z" fill="white"/>
<path d="M537.977 238.498L542.707 217.917H547.023L542.292 238.498H537.977ZM548.268 209.825C548.793 210.351 549.056 210.987 549.056 211.734C549.056 212.509 548.8 213.145 548.289 213.643C547.777 214.141 547.12 214.39 546.318 214.39C545.515 214.39 544.858 214.141 544.346 213.643C543.834 213.145 543.579 212.509 543.579 211.734C543.579 210.987 543.834 210.351 544.346 209.825C544.858 209.3 545.515 209.037 546.318 209.037C547.091 209.037 547.742 209.3 548.268 209.825V209.825Z" fill="white"/>
<path d="M549.181 238.498L556.109 208.622H560.425L553.538 238.498H549.181Z" fill="white"/>
<path d="M580.702 218.67C582.15 219.729 582.965 221.182 583.146 223.031L579.48 223.748C579.435 222.606 578.965 221.681 578.071 220.975C577.177 220.269 576.017 219.916 574.592 219.916C573.188 219.916 572.028 220.248 571.112 220.913C570.195 221.577 569.737 222.398 569.737 223.374C569.737 223.935 569.924 224.392 570.298 224.745C570.67 225.098 571.299 225.42 572.182 225.71L575.814 226.801C579.163 227.798 580.837 229.532 580.837 232.004C580.837 234.06 579.995 235.711 578.309 236.957C576.622 238.203 574.41 238.826 571.672 238.826C569.183 238.826 567.084 238.287 565.375 237.206C563.666 236.126 562.744 234.569 562.608 232.534L566.479 231.817C566.569 233.146 567.101 234.163 568.074 234.87C569.047 235.576 570.348 235.929 571.978 235.929C573.607 235.929 574.886 235.602 575.814 234.948C576.741 234.294 577.205 233.437 577.205 232.378C577.205 231.775 577.002 231.282 576.594 230.898C576.187 230.513 575.486 230.166 574.489 229.854L570.891 228.795C569.353 228.317 568.142 227.715 567.259 226.988C566.376 226.261 565.935 225.202 565.935 223.811C565.935 221.837 566.778 220.222 568.464 218.965C570.15 217.709 572.317 217.08 574.965 217.08C577.342 217.08 579.254 217.61 580.702 218.67H580.702Z" fill="white"/>
<path d="M590.055 229.536C590.055 231.361 590.553 232.786 591.549 233.81C592.545 234.833 593.969 235.345 595.822 235.345C598.506 235.345 600.608 234.1 602.13 231.61L605.947 232.607C604.951 234.681 603.527 236.278 601.674 237.399C599.82 238.52 597.772 239.079 595.532 239.079C592.683 239.079 590.394 238.228 588.664 236.527C586.936 234.826 586.071 232.551 586.071 229.702C586.071 226.189 587.302 223.249 589.764 220.884C592.226 218.519 595.062 217.336 598.271 217.336C601.314 217.336 603.672 218.435 605.345 220.634C607.019 222.835 607.566 225.704 606.985 229.245H590.055V229.536V229.536ZM593.458 222.439C592.185 223.408 591.259 224.652 590.677 226.174H603.291C603.209 224.514 602.697 223.236 601.756 222.337C600.816 221.436 599.543 220.987 597.939 220.987C596.223 220.987 594.73 221.472 593.458 222.439V222.439Z" fill="white"/>
<path d="M629.849 238.498H625.533L626.031 236.382C624.067 238.18 621.619 239.079 618.686 239.079C615.92 239.079 613.693 238.056 612.006 236.009C610.318 233.962 609.723 231.348 610.221 228.166C610.719 224.957 612.089 222.35 614.329 220.344C616.57 218.338 619.157 217.336 622.089 217.336C625.741 217.336 628.216 218.691 629.516 221.402L630.305 217.917H634.62L629.849 238.498V238.498ZM625.035 233.291C626.612 231.977 627.566 230.268 627.899 228.166C628.23 226.064 627.822 224.369 626.674 223.083C625.526 221.796 624.053 221.153 622.255 221.153C620.29 221.153 618.582 221.796 617.13 223.083C615.677 224.369 614.773 226.064 614.413 228.166C614.053 230.297 614.406 232.011 615.471 233.312C616.535 234.612 618.036 235.262 619.973 235.262C621.771 235.262 623.458 234.605 625.035 233.291V233.291Z" fill="white"/>
<path d="M654.582 217.833L653.42 221.984C653.199 221.956 652.811 221.941 652.258 221.941C649.74 221.941 647.645 222.765 645.972 224.411C644.298 226.056 643.129 228.332 642.466 231.237L640.764 238.498H636.449L641.178 217.917H645.535L644.706 221.569C647.251 218.968 650.087 217.668 653.212 217.668C653.821 217.668 654.278 217.724 654.582 217.833H654.582Z" fill="white"/>
<path d="M667.446 234.016C668.58 233.298 669.452 232.288 670.061 230.988L674.169 231.735C673.256 233.948 671.81 235.725 669.832 237.067C667.855 238.409 665.69 239.079 663.338 239.079C660.157 239.079 657.653 238.063 655.828 236.029C654.002 233.996 653.337 231.389 653.835 228.207C654.333 225.054 655.8 222.453 658.235 220.407C660.669 218.36 663.394 217.336 666.408 217.336C668.759 217.336 670.765 217.993 672.425 219.307C674.085 220.621 675.053 222.371 675.33 224.556L670.89 225.428C670.779 224.128 670.254 223.118 669.313 222.398C668.372 221.679 667.21 221.32 665.828 221.32C663.892 221.32 662.19 221.963 660.724 223.249C659.258 224.536 658.359 226.189 658.027 228.207C657.723 230.255 658.103 231.914 659.168 233.187C660.233 234.46 661.734 235.096 663.67 235.096C665.053 235.096 666.311 234.736 667.446 234.016V234.016Z" fill="white"/>
<path d="M698.569 220.095C699.815 221.936 700.132 224.21 699.523 226.921L696.826 238.498H692.511L695.209 226.755C695.596 225.041 695.415 223.678 694.668 222.668C693.922 221.658 692.747 221.153 691.142 221.153C689.344 221.153 687.822 221.783 686.578 223.041C685.333 224.3 684.406 226.119 683.797 228.499L681.474 238.498H677.158L684.046 208.622H688.403L685.623 220.573C687.448 218.415 689.772 217.336 692.594 217.336C695.333 217.336 697.324 218.256 698.569 220.095V220.095Z" fill="white"/>
<path d="M107.029 34.631L0 0V41.8226C0 49.7417 5.10432 56.7582 12.6388 59.1961L118.902 93.5793V50.9516C118.902 43.5124 114.107 36.9212 107.029 34.631V34.631Z" fill="#FDD106"/>
<path d="M226.614 181.401L118.902 147.506V190.347C118.902 197.647 123.638 204.103 130.601 206.294L237.987 240.087V196.903C237.987 189.807 233.383 183.531 226.614 181.401V181.401Z" fill="#FDD106"/>
<path d="M178.748 123.395L43.6372 178.784V135.614C43.6372 128.394 48.0006 121.889 54.6814 119.15L194.166 61.9673V100.41C194.166 110.49 188.075 119.571 178.748 123.395V123.395Z" fill="#FDD106"/>
<path d="M287.275 167.516L336.025 101.723V87.9067H273.39C266.875 87.9067 261.574 93.2075 261.574 99.7228V104.785H309.772L259 172.083V184.394H322.085C330.151 184.394 336.714 177.832 336.714 169.766V167.516H287.275V167.516Z" fill="white"/>
<path d="M432.024 99.9897C441.902 109.352 446.841 121.393 446.841 136.113C446.841 150.833 441.871 162.908 431.927 172.333C421.984 181.759 409.846 186.474 395.513 186.474C381.051 186.474 368.817 181.759 358.808 172.333C348.801 162.908 343.798 150.833 343.798 136.113C343.798 121.393 348.801 109.352 358.808 99.9897C368.817 90.6274 381.051 85.9462 395.513 85.9462C409.976 85.9462 422.146 90.6274 432.024 99.9897ZM417.787 159.84C424.116 153.706 427.279 145.799 427.279 136.113C427.279 126.43 424.116 118.52 417.787 112.386C411.46 106.252 404.036 103.187 395.513 103.187C386.732 103.187 379.21 106.252 372.948 112.386C366.685 118.52 363.554 126.43 363.554 136.113C363.554 145.799 366.685 153.706 372.948 159.84C379.21 165.973 386.732 169.042 395.513 169.042C404.036 169.042 411.46 165.973 417.787 159.84Z" fill="white"/>
<path d="M458.692 184.148V46.6287H478.837V171.084C478.837 178.299 472.988 184.148 465.773 184.148H458.692V184.148Z" fill="white"/>
<path d="M552.915 184.148H531.415L490.158 87.883H500.967C507.678 87.883 513.731 91.9129 516.32 98.1034L542.262 160.132L568.203 98.1034C570.792 91.9129 576.846 87.883 583.556 87.883H594.365L552.915 184.148H552.915Z" fill="white"/>
<path d="M624.745 50.3073C627.197 52.7623 628.425 55.7305 628.425 59.217C628.425 62.8325 627.23 65.8033 624.841 68.1268C622.453 70.4529 619.386 71.6133 615.641 71.6133C611.896 71.6133 608.798 70.4529 606.344 68.1268C603.89 65.8033 602.664 62.8325 602.664 59.217C602.664 55.7305 603.89 52.7623 606.344 50.3073C608.798 47.8549 611.896 46.6287 615.641 46.6287C619.257 46.6287 622.291 47.8549 624.745 50.3073ZM605.569 184.148V88.0776H625.713V168C625.713 176.918 618.483 184.148 609.565 184.148H605.569V184.148Z" fill="white"/>
<path d="M717.107 179.501C708.843 184.406 700.901 186.861 693.284 186.861C682.565 186.861 674.108 183.859 667.91 177.854C661.711 171.849 658.612 163.037 658.612 151.414V104.734H636.726V88.0777H658.612V58.2487H678.756V88.0777H712.445L712.406 88.9474C712.002 97.7805 704.723 104.734 695.88 104.734H678.756V150.059C678.756 155.869 680.177 160.292 683.018 163.326C685.858 166.36 689.733 167.879 694.639 167.879C700.191 167.879 705.616 166.137 710.909 162.65L717.107 179.501V179.501Z" fill="white"/>
</svg>
