<svg width="78" height="28" viewBox="0 0 78 28" fill="none" xmlns="http://www.w3.org/2000/svg">
<path d="M64.4907 27.7483C71.941 27.7483 78 21.6953 78 14.2483C78 6.80137 71.941 0.748312 64.4907 0.748312C57.0405 0.748312 50.9815 6.80137 50.9815 14.2483C50.9815 21.6823 57.0405 27.7483 64.4907 27.7483ZM64.4907 9.43426C67.1432 9.43426 69.3145 11.5896 69.3145 14.2483C69.3145 16.907 67.1562 19.0624 64.4907 19.0624C61.8383 19.0624 59.6799 16.907 59.6799 14.2483C59.6799 11.5896 61.8383 9.42135 64.4907 9.43426ZM13.5092 27.7483C20.9595 27.7483 27.0185 21.6953 27.0185 14.2483C27.0185 6.80137 20.9595 0.748312 13.5092 0.748312C6.05901 0.735405 0 6.78846 0 14.2483C0 21.6823 6.05901 27.7483 13.5092 27.7483ZM13.5092 9.43426C16.1617 9.43426 18.3331 11.5896 18.3331 14.2483C18.3331 16.907 16.1747 19.0624 13.5092 19.0624C10.8568 19.0624 8.69845 16.907 8.69845 14.2483C8.69845 11.5896 10.8568 9.42135 13.5092 9.43426ZM38.9935 9.12451L34.8458 0.916094H25.1332L34.2087 18.8688V27.3224H43.7913V18.8688L52.8668 0.916094H43.1542L38.9935 9.12451Z" fill="white"/>
</svg>
