<svg width="91" height="28" viewBox="0 0 91 28" fill="none" xmlns="http://www.w3.org/2000/svg">
<path d="M8.97468 27.7499C8.95797 27.7328 8.94125 27.7158 8.92454 27.6988C8.607 27.2899 6.63492 24.7688 4.6127 21.5492C4.01104 20.5272 3.60994 19.7095 3.69351 19.5051C3.89406 18.96 7.4037 18.6704 8.4733 19.1644C8.80755 19.3177 8.79084 19.5051 8.79084 19.6243C8.79084 20.1183 8.77413 21.447 8.77413 21.447C8.77413 21.7196 8.99139 21.941 9.25879 21.941C9.52619 21.941 9.74346 21.7196 9.74346 21.447V18.1423C9.74346 17.8527 9.44263 17.7846 9.37578 17.7675C8.80756 17.7675 7.6711 17.7675 6.43437 17.7675C3.72693 17.7675 3.10856 17.8868 2.65732 17.5801C1.65457 16.9158 0.03345 12.4357 -0.0166877 9.91453C-0.0668255 6.35428 2.00553 3.271 4.91352 1.75491C6.13354 1.12463 7.50397 0.783935 8.95797 0.783935C13.5874 0.749866 17.3811 4.29308 17.8825 8.85838C17.8825 8.85838 17.8825 8.85838 17.8825 8.87542C17.9828 9.98267 12.0164 10.2212 10.8298 9.8975C10.6459 9.84639 10.5958 9.65901 10.5958 9.57384C10.5958 8.73914 10.5958 6.37132 10.5958 6.37132C10.5958 6.09876 10.3785 5.87731 10.1111 5.87731C9.84373 5.87731 9.62647 6.09876 9.62647 6.37132L9.64318 10.7152C9.64318 10.9877 9.87716 11.0559 9.94401 11.0729C10.6125 11.0729 12.1835 11.0729 13.6542 11.0729C15.6263 11.0729 16.4619 11.3114 17.0134 11.7372C17.3811 12.0268 17.5148 12.5719 17.3978 13.2704C16.2614 19.6073 9.24208 27.4262 8.97468 27.7499ZM28.0103 13.0148C29.7818 13.7814 30.8849 14.6502 30.8849 16.524C30.8849 18.4489 29.4476 19.6925 27.2415 19.6925C25.4533 19.6925 24.016 18.8578 23.2974 17.4268L23.1804 17.1884L25.2862 15.9448L25.4199 16.1833C25.8878 16.9669 26.4226 17.3076 27.1914 17.3076C27.8599 17.3076 28.2944 17.001 28.2944 16.5581C28.2944 16.0641 27.9769 15.8767 26.9741 15.4338L26.4727 15.2123C25.119 14.6161 23.8656 13.8155 23.8656 11.8224C23.8656 10.0508 25.2026 8.80728 27.1245 8.80728C28.5785 8.80728 29.5646 9.38646 30.2498 10.613L30.3835 10.8344L28.3446 12.1801L28.2109 11.9246C27.8766 11.2943 27.5424 11.1751 27.1413 11.1751C26.7067 11.1751 26.4393 11.4136 26.4393 11.7884C26.4393 12.2142 26.6399 12.4016 27.5256 12.7934L28.0103 13.0148ZM42.9346 13.3726L44.4221 9.14797H46.9791L43.1853 19.8798H42.6171L40.3275 14.8376C40.2272 14.5991 40.1102 14.3265 40.0099 14.054C39.9097 14.3095 39.7927 14.5991 39.6924 14.8376L37.3192 19.8628H36.751L32.9071 9.13094H35.6312L37.1354 13.3555C37.2356 13.6281 37.3359 13.9518 37.4195 14.2584C37.5198 13.9518 37.6368 13.6111 37.7705 13.3215L39.7425 9.02873H40.2941L42.2996 13.3215C42.4333 13.594 42.5503 13.9347 42.6505 14.2584C42.7508 13.9688 42.8511 13.6451 42.9346 13.3726ZM49.9706 19.5562V8.92652H52.5444V19.5562H49.9706ZM61.0009 15.9789V13.594H65.7807V18.3637L65.6805 18.4489C65.1289 18.9089 63.6749 19.6754 61.7196 19.6754C58.3938 19.6754 56.0874 17.4268 56.0874 14.2243C56.0874 11.0729 58.3269 8.79024 61.402 8.79024C63.09 8.79024 64.3435 9.28425 65.1958 10.2723L65.3629 10.4596L63.6081 12.2313L63.4243 12.0268C62.9396 11.5158 62.4215 11.1921 61.402 11.1921C59.8311 11.1921 58.728 12.4357 58.728 14.2073C58.728 16.0641 59.8979 17.2565 61.7196 17.2565C62.3212 17.2565 62.9563 17.1543 63.3741 16.9839V15.9619H61.0009V15.9789ZM74.0702 15.9789V13.594H78.85V18.3637L78.7497 18.4489C78.1982 18.9089 76.7442 19.6754 74.7888 19.6754C71.463 19.6754 69.1567 17.4268 69.1567 14.2243C69.1567 11.0729 71.3962 8.79024 74.4713 8.79024C76.1592 8.79024 77.4127 9.28425 78.265 10.2723L78.4322 10.4596L76.6773 12.2313L76.4935 12.0268C76.0088 11.5158 75.4907 11.1921 74.4713 11.1921C72.9003 11.1921 71.7973 12.4357 71.7973 14.2073C71.7973 16.0641 72.9671 17.2565 74.8055 17.2565C75.4072 17.2565 76.0423 17.1543 76.4601 16.9839V15.9619H74.0702V15.9789ZM88.3093 8.92652H91L87.2898 15.9959V19.5562H84.6994V16.1492L80.7719 8.92652H83.6465L85.4682 12.3164C85.6687 12.6912 85.8693 13.1682 86.0197 13.577C86.1701 13.1852 86.3706 12.7082 86.5545 12.3335L88.3093 8.92652Z" fill="white"/>
</svg>
