<svg width="121" height="40" viewBox="0 0 121 40" fill="none" xmlns="http://www.w3.org/2000/svg">
<path d="M119.387 8.6617C119.79 9.04737 120.046 9.56121 120.111 10.115C120.176 10.6688 120.046 11.228 119.744 11.6966C119.442 12.1652 118.986 12.514 118.455 12.6831C117.924 12.8522 117.35 12.831 116.832 12.6233C116.315 12.4155 115.886 12.0342 115.619 11.5446C115.352 11.055 115.264 10.4878 115.37 9.9403C115.475 9.39282 115.768 8.89921 116.198 8.54422C116.628 8.18923 117.169 7.995 117.726 7.99486C118.034 7.98708 118.34 8.04221 118.626 8.15688C118.911 8.27154 119.17 8.44333 119.387 8.6617ZM119.101 11.7365C119.422 11.4198 119.623 11.0015 119.67 10.5531C119.717 10.1046 119.607 9.65373 119.359 9.27736C119.11 8.90099 118.739 8.62244 118.308 8.48924C117.877 8.35603 117.414 8.37641 116.996 8.54692C116.579 8.71743 116.234 9.02749 116.019 9.42421C115.805 9.82093 115.735 10.2797 115.821 10.7223C115.907 11.1649 116.144 11.5639 116.492 11.8512C116.839 12.1386 117.276 12.2964 117.727 12.2978C117.982 12.3027 118.236 12.2554 118.472 12.1589C118.709 12.0623 118.923 11.9186 119.102 11.7365H119.101ZM118.148 10.6021L118.861 11.374H118.373L117.694 10.6373H117.287V11.374H116.889V9.18737H117.871C118.098 9.17647 118.323 9.24464 118.506 9.38033C118.584 9.44204 118.646 9.52133 118.688 9.61174C118.73 9.70216 118.75 9.80113 118.746 9.90062C118.754 10.0715 118.697 10.2392 118.586 10.3696C118.476 10.5 118.319 10.5833 118.149 10.6026L118.148 10.6021ZM117.867 10.2866C117.989 10.2924 118.11 10.2551 118.207 10.181C118.248 10.1493 118.281 10.1085 118.303 10.0618C118.325 10.0152 118.336 9.96402 118.335 9.91233C118.337 9.86134 118.326 9.81076 118.303 9.76492C118.281 9.71907 118.248 9.67931 118.207 9.64902C118.108 9.57911 117.988 9.54469 117.867 9.55132H117.281V10.288L117.867 10.2866Z" fill="white"/>
<path d="M18.2237 6.0849L0.800781 0.447266V7.25541C0.800806 7.88372 0.999918 8.49588 1.36952 9.00398C1.73912 9.51208 2.26021 9.89001 2.85798 10.0835L20.1558 15.6806V8.74347C20.1562 8.15296 19.9694 7.57752 19.6223 7.09984C19.2751 6.62215 18.7855 6.26682 18.2237 6.0849Z" fill="#FDD106"/>
<path d="M37.69 29.9769L20.1562 24.459V31.4332C20.1563 32.0123 20.3411 32.5762 20.6838 33.043C21.0265 33.5098 21.5091 33.8552 22.0615 34.0288L39.5426 39.5296V32.5002C39.5424 31.9372 39.3627 31.389 39.0296 30.9352C38.6964 30.4814 38.2271 30.1457 37.69 29.9769Z" fill="#FDD106"/>
<path d="M29.8984 20.5344L7.9043 29.5511V22.5237C7.90429 21.949 8.07522 21.3873 8.39536 20.9101C8.7155 20.4328 9.17035 20.0616 9.70208 19.8436L32.4079 10.5352V16.7932C32.4079 17.5954 32.1693 18.3795 31.7224 19.0456C31.2755 19.7118 30.6406 20.23 29.8984 20.5344Z" fill="#FDD106"/>
<path d="M47.7742 27.8944L55.2648 17.7848V15.6621H45.6408C45.1595 15.6626 44.698 15.854 44.3577 16.1944C44.0173 16.5347 43.8259 16.9962 43.8254 17.4775V18.2552H51.231L43.4297 28.5964V30.488H53.1231C53.7189 30.4872 54.29 30.2502 54.7113 29.8289C55.1325 29.4077 55.3696 28.8365 55.3703 28.2408V27.8954L47.7742 27.8944Z" fill="white"/>
<path d="M70.0173 17.5198C71.4788 19.0015 72.2969 20.9998 72.294 23.081C72.2912 25.1621 71.4676 27.1582 70.0022 28.6359C69.2583 29.3482 68.3812 29.9069 67.4211 30.2798C66.461 30.6526 65.4368 30.8324 64.4071 30.8088C62.3139 30.8584 60.2862 30.0772 58.7675 28.6359C58.0364 27.9067 57.4562 27.0404 57.0604 26.0866C56.6646 25.1329 56.4609 24.1105 56.4609 23.0779C56.4609 22.0452 56.6646 21.0228 57.0604 20.0691C57.4562 19.1153 58.0364 18.249 58.7675 17.5198C60.2904 16.0869 62.3166 15.3116 64.4071 15.362C65.4381 15.3352 66.4644 15.5121 67.4271 15.8823C68.3897 16.2526 69.2699 16.809 70.0173 17.5198ZM67.8297 26.714C68.7659 25.7311 69.2881 24.4257 69.2881 23.0683C69.2881 21.7109 68.7659 20.4056 67.8297 19.4227C66.912 18.5174 65.6747 18.0098 64.3856 18.0098C63.0965 18.0098 61.8592 18.5174 60.9414 19.4227C60.014 20.41 59.4978 21.7137 59.4978 23.0683C59.4978 24.4229 60.014 25.7266 60.9414 26.714C61.859 27.6195 63.0964 28.1272 64.3856 28.1272C65.6748 28.1272 66.9121 27.6195 67.8297 26.714Z" fill="white"/>
<path d="M74.1152 30.4487V9.32031H77.2106V28.4457C77.2106 28.7093 77.1586 28.9704 77.0578 29.2139C76.9569 29.4575 76.809 29.6788 76.6226 29.8652C76.4362 30.0516 76.2149 30.1994 75.9714 30.3003C75.7279 30.4012 75.4668 30.4531 75.2032 30.4531L74.1152 30.4487Z" fill="white"/>
<path d="M88.5898 30.4499H85.2864L78.9473 15.6582H80.6082C81.1125 15.6582 81.6056 15.8073 82.0253 16.0868C82.4451 16.3662 82.7728 16.7636 82.9674 17.2288L86.9533 26.7595L90.9392 17.2288C91.1338 16.7636 91.4615 16.3663 91.8813 16.0869C92.301 15.8074 92.794 15.6583 93.2983 15.6582H94.9593L88.5898 30.4499Z" fill="white"/>
<path d="M99.6284 9.88453C99.8109 10.0619 99.9552 10.2748 100.052 10.51C100.15 10.7453 100.198 10.9979 100.194 11.2524C100.202 11.5061 100.157 11.7588 100.062 11.9944C99.9677 12.2299 99.8248 12.4431 99.643 12.6203C99.4553 12.7999 99.2335 12.94 98.9906 13.0324C98.7478 13.1247 98.4889 13.1673 98.2292 13.1577C97.9675 13.1664 97.7066 13.1234 97.4615 13.0311C97.2164 12.9389 96.9919 12.7993 96.8008 12.6203C96.615 12.4453 96.4686 12.2329 96.3711 11.9971C96.2735 11.7613 96.2272 11.5075 96.2351 11.2524C96.231 10.9979 96.2791 10.7452 96.3764 10.5099C96.4737 10.2747 96.6181 10.0619 96.8008 9.88453C96.9877 9.69786 97.2109 9.55141 97.4566 9.4542C97.7022 9.357 97.9652 9.31109 98.2292 9.31929C98.4887 9.31298 98.7467 9.35987 98.9873 9.45708C99.228 9.55429 99.4461 9.69977 99.6284 9.88453ZM96.6821 30.4516V15.6883H99.7774V27.9684C99.7774 28.6265 99.516 29.2576 99.0507 29.7229C98.5853 30.1882 97.9542 30.4496 97.2961 30.4496L96.6821 30.4516Z" fill="white"/>
<path d="M113.82 29.737C112.724 30.4383 111.459 30.8291 110.159 30.8679C109.45 30.9068 108.74 30.8044 108.071 30.5669C107.402 30.3293 106.786 29.9612 106.26 29.4839C105.308 28.5613 104.832 27.2071 104.832 25.4213V18.2487H101.469V15.6888H104.832V11.1055H107.927V15.6888H113.105L113.099 15.8227C113.07 16.4764 112.789 17.0934 112.316 17.5452C111.842 17.9971 111.213 18.2489 110.559 18.2483H107.928V25.2152C107.875 25.9536 108.11 26.6838 108.582 27.2538C108.813 27.4906 109.092 27.6754 109.4 27.7961C109.708 27.9167 110.038 27.9703 110.368 27.9534C111.263 27.9403 112.133 27.6605 112.868 27.1497L113.82 29.737Z" fill="white"/>
</svg>
